<svg width="87" height="87" viewBox="0 0 87 87" fill="none" xmlns="http://www.w3.org/2000/svg">
<path d="M26.5518 25.81C26.5518 23.8102 28.0995 22.1887 30.0085 22.1887H36.9208C38.8297 22.1887 40.3775 23.8102 40.3775 25.81V30.6884C40.3775 32.6883 38.8297 34.3097 36.9208 34.3097H30.0085C28.0995 34.3097 26.5518 32.6883 26.5518 30.6884V25.81Z" fill="black"/>
<path d="M26.5518 56.5175C26.5518 54.5177 28.0995 52.8962 30.0085 52.8962H36.9208C38.8297 52.8962 40.3775 54.5177 40.3775 56.5175V61.396C40.3775 63.3959 38.8297 65.0173 36.9208 65.0173H30.0085C28.0995 65.0173 26.5518 63.3959 26.5518 61.396V56.5175Z" fill="black"/>
<path d="M47.5923 25.81C47.5923 23.8102 49.14 22.1887 51.049 22.1887H57.9613C59.8702 22.1887 61.418 23.8102 61.418 25.81V30.6884C61.418 32.6883 59.8702 34.3097 57.9613 34.3097H51.049C49.14 34.3097 47.5923 32.6883 47.5923 30.6884V25.81Z" fill="black"/>
<path d="M47.5923 56.5175C47.5923 54.5177 49.14 52.8962 51.049 52.8962H57.9613C59.8702 52.8962 61.418 54.5177 61.418 56.5175V61.396C61.418 63.3959 59.8702 65.0173 57.9613 65.0173H51.049C49.14 65.0173 47.5923 63.3959 47.5923 61.396V56.5175Z" fill="black"/>
<path fill-rule="evenodd" clip-rule="evenodd" d="M16.6538 43.4447C16.6538 42.0744 17.7141 40.9636 19.0221 40.9636H69.0203C70.3283 40.9636 71.3886 42.0744 71.3886 43.4447C71.3886 44.8149 70.3283 45.9258 69.0203 45.9258H19.0221C17.7141 45.9258 16.6538 44.8149 16.6538 43.4447Z" fill="black"/>
<path fill-rule="evenodd" clip-rule="evenodd" d="M18.6958 8C13.8932 8 10 12.0786 10 17.1098V28.6311C10 30.0262 11.0796 31.1573 12.4113 31.1573C13.7431 31.1573 14.8227 30.0262 14.8227 28.6311V17.1098C14.8227 14.8689 16.5567 13.0523 18.6958 13.0523H29.6934C31.0252 13.0523 32.1048 11.9213 32.1048 10.5262C32.1048 9.131 31.0252 8 29.6934 8H18.6958Z" fill="black"/>
<path fill-rule="evenodd" clip-rule="evenodd" d="M18.6958 78.8888C13.8932 78.8888 10 74.8102 10 69.779V58.2577C10 56.8625 11.0796 55.7315 12.4113 55.7315C13.7431 55.7315 14.8227 56.8625 14.8227 58.2577V69.779C14.8227 72.0199 16.5567 73.8365 18.6958 73.8365H29.6934C31.0252 73.8365 32.1048 74.9675 32.1048 76.3627C32.1048 77.7578 31.0252 78.8888 29.6934 78.8888H18.6958Z" fill="black"/>
<path fill-rule="evenodd" clip-rule="evenodd" d="M68.9701 8C73.7726 8 77.6659 12.0786 77.6659 17.1098V28.6311C77.6659 30.0262 76.5863 31.1573 75.2545 31.1573C73.9228 31.1573 72.8432 30.0262 72.8432 28.6311V17.1098C72.8432 14.8689 71.1091 13.0523 68.9701 13.0523H57.9724C56.6407 13.0523 55.561 11.9213 55.561 10.5262C55.561 9.131 56.6407 8 57.9724 8H68.9701Z" fill="black"/>
<path fill-rule="evenodd" clip-rule="evenodd" d="M68.9701 78.8888C73.7726 78.8888 77.6659 74.8102 77.6659 69.779V58.2577C77.6659 56.8625 76.5863 55.7315 75.2545 55.7315C73.9228 55.7315 72.8432 56.8625 72.8432 58.2577V69.779C72.8432 72.0199 71.1091 73.8365 68.9701 73.8365H57.9724C56.6407 73.8365 55.561 74.9675 55.561 76.3627C55.561 77.7578 56.6407 78.8888 57.9724 78.8888H68.9701Z" fill="black"/>
</svg>
