<svg width="66" height="71" viewBox="0 0 66 71" fill="none" xmlns="http://www.w3.org/2000/svg">
<path d="M19.5974 54.8648C15.4622 54.8648 12.3206 53.3342 10.1724 50.2731C8.02428 47.212 7.00391 43.7749 7.11131 39.962L5.66131 37.787C5.07057 36.874 4.09048 34.8064 2.72104 31.5842C1.35159 28.362 0.66687 24.3073 0.66687 19.4203C0.66687 13.8888 2.03631 9.28373 4.7752 5.60503C7.51409 1.92633 10.978 0.0869751 15.1669 0.0869751C19.7317 0.0869751 23.2896 2.11429 25.8405 6.16892C28.3914 10.2235 29.6669 14.6407 29.6669 19.4203C29.6669 22.5351 29.2372 25.4083 28.378 28.0398C27.5187 30.6712 26.7669 32.7925 26.1224 34.4036L26.7669 35.4509C27.1965 36.2027 27.7872 37.3976 28.5391 39.0356C29.2909 40.6735 29.6669 42.3786 29.6669 44.1509C29.6669 47.212 28.7136 49.7629 26.8071 51.8036C24.9007 53.8444 22.4974 54.8648 19.5974 54.8648ZM11.1391 34.2425L20.0002 32.4703C20.6984 30.7518 21.4099 28.7916 22.1349 26.5898C22.8599 24.3879 23.2224 21.9981 23.2224 19.4203C23.2224 16.1981 22.484 13.2444 21.0071 10.5592C19.5303 7.87401 17.5835 6.53142 15.1669 6.53142C12.7502 6.53142 10.8034 7.87401 9.32659 10.5592C7.84974 13.2444 7.11131 16.1981 7.11131 19.4203C7.11131 22.8036 7.58122 25.7976 8.52104 28.4023C9.46085 31.0069 10.3335 32.9536 11.1391 34.2425ZM19.5974 48.4203C20.6178 48.4203 21.4771 48.0444 22.1752 47.2925C22.8734 46.5407 23.2224 45.4935 23.2224 44.1509C23.2224 43.2379 23.0076 42.2981 22.578 41.3314C22.1484 40.3648 21.7187 39.5055 21.2891 38.7536L13.5558 40.3648C13.5558 42.5129 14.0257 44.3925 14.9655 46.0036C15.9053 47.6148 17.4493 48.4203 19.5974 48.4203ZM46.1808 70.9759C43.2808 70.9759 40.8775 69.9555 38.971 67.9148C37.0646 65.874 36.1113 63.3231 36.1113 60.262C36.1113 58.4898 36.4872 56.7847 37.2391 55.1467C37.9909 53.5087 38.5817 52.3138 39.0113 51.562L39.6558 50.5148C39.0113 48.9036 38.2595 46.7823 37.4002 44.1509C36.5409 41.5194 36.1113 38.6462 36.1113 35.5314C36.1113 30.7518 37.3868 26.3347 39.9377 22.28C42.4886 18.2254 46.0465 16.1981 50.6113 16.1981C54.8002 16.1981 58.2641 18.0374 61.003 21.7161C63.7419 25.3948 65.1113 29.9999 65.1113 35.5314C65.1113 40.4185 64.4266 44.4597 63.0571 47.655C61.6877 50.8504 60.7076 52.9046 60.1169 53.8175L58.6669 56.0731C58.7206 59.886 57.6868 63.3231 55.5655 66.3842C53.4442 69.4453 50.3159 70.9759 46.1808 70.9759ZM54.6391 50.3536C55.4446 49.0648 56.3173 47.1314 57.2571 44.5536C58.197 41.9759 58.6669 38.9685 58.6669 35.5314C58.6669 32.3092 57.9284 29.3555 56.4516 26.6703C54.9747 23.9851 53.028 22.6425 50.6113 22.6425C48.1946 22.6425 46.2479 23.9851 44.771 26.6703C43.2942 29.3555 42.5558 32.3092 42.5558 35.5314C42.5558 38.1092 42.9183 40.4856 43.6433 42.6606C44.3683 44.8356 45.0798 46.8092 45.778 48.5814L54.6391 50.3536ZM46.1808 64.5314C48.3289 64.5314 49.8729 63.7259 50.8127 62.1148C51.7525 60.5036 52.2224 58.624 52.2224 56.4759L44.4891 54.8648C44.0595 55.6166 43.6298 56.4759 43.2002 57.4425C42.7706 58.4092 42.5558 59.349 42.5558 60.262C42.5558 61.3361 42.8914 62.3161 43.5627 63.2022C44.234 64.0884 45.1067 64.5314 46.1808 64.5314Z" fill="white"/>
</svg>
