<svg width="87" height="87" viewBox="0 0 87 87" fill="none" xmlns="http://www.w3.org/2000/svg">
<path d="M71.8813 24.3813C71.7628 24.2622 71.7628 24.1423 71.6435 24.0233L54.1872 6.358C54.0687 6.23895 53.9494 6.11906 53.831 6.11906C53.5941 6 53.4748 6 53.3563 6H17.3748C16.0685 6 15 7.07401 15 8.3869V77.6131C15 78.926 16.0686 80 17.3748 80H69.6252C70.9315 80 72 78.926 72 77.6131V24.858C72 24.6198 71.9997 24.5003 71.8813 24.3813ZM54.5432 10.0588L67.9623 23.5462L55.7309 23.5454C55.0186 23.5454 54.5431 23.0683 54.5431 22.3515L54.5432 10.0588ZM69.6248 77.614H17.3744V8.38784H52.1684V22.4714C52.1684 24.5003 53.7124 26.0522 55.7312 26.0522H69.625L69.6248 77.614ZM62.5002 34.4073H31.6249C30.9126 34.4073 30.4371 33.9303 30.4371 33.2134C30.4371 32.4974 30.9117 32.0196 31.6249 32.0196H62.5002C63.2125 32.0196 63.688 32.4966 63.688 33.2134C63.6872 33.9303 63.2125 34.4073 62.5002 34.4073ZM62.5002 46.104H24.4999C23.7875 46.104 23.312 45.6269 23.312 44.9101C23.312 44.1941 23.7867 43.7162 24.4999 43.7162H62.5002C63.2125 43.7162 63.688 44.1932 63.688 44.9101C63.688 45.6269 63.2125 46.104 62.5002 46.104ZM62.5002 57.6815H24.4999C23.7875 57.6815 23.312 57.2044 23.312 56.4876C23.312 55.7716 23.7867 55.2937 24.4999 55.2937H62.5002C63.2125 55.2937 63.688 55.7707 63.688 56.4876C63.688 57.2044 63.2125 57.6815 62.5002 57.6815ZM62.5002 69.3789H24.4999C23.7875 69.3789 23.312 68.9019 23.312 68.185C23.312 67.469 23.7867 66.9911 24.4999 66.9911H62.5002C63.2125 66.9911 63.688 67.4682 63.688 68.185C63.688 68.9011 63.2125 69.3789 62.5002 69.3789Z" fill="black"/>
</svg>
