<svg width="87" height="92" viewBox="0 0 87 92" fill="none" xmlns="http://www.w3.org/2000/svg">
<path d="M76.3408 13.3917L58.9857 5.8003C58.9478 5.78346 58.9127 5.76522 58.8734 5.75118L47.7851 0.901637C45.9539 0.101798 43.8533 0.101798 42.0207 0.901637L13.465 13.3917C12.9543 13.6149 12.6245 14.12 12.6245 14.6771V50.747C12.6245 52.8378 13.8622 54.7308 15.7776 55.5685L42.0207 67.0511C42.9314 67.451 43.9108 67.6489 44.8889 67.6517C44.8931 67.6517 44.8973 67.6545 44.9029 67.6545C44.9085 67.6545 44.9113 67.6517 44.9169 67.6517C45.895 67.6503 46.8744 67.4496 47.7865 67.0511L74.0283 55.5685C75.9437 54.7308 77.1827 52.8392 77.1827 50.747V14.6771C77.1827 14.12 76.8516 13.6149 76.3408 13.3917ZM43.1461 25.8805L31.0278 20.5805L58.3977 8.60535L72.2784 14.6771L46.6626 25.8805C45.5442 26.3688 44.263 26.3688 43.1461 25.8805ZM43.1447 3.47235C44.263 2.98402 45.5428 2.98402 46.6598 3.47235L54.8953 7.07443L27.5254 19.0496L17.5288 14.6771L43.1447 3.47235ZM16.9015 52.9978C16.0077 52.6077 15.431 51.7237 15.431 50.747V16.8226L26.132 21.5024V37.1231C26.132 37.8991 26.7606 38.5263 27.5352 38.5263C28.3098 38.5263 28.9384 37.8991 28.9384 37.1231V22.7302L42.0207 28.4526C42.4978 28.6616 42.9945 28.8104 43.4997 28.91V64.5927C43.3818 64.5534 43.2597 64.5295 43.1447 64.4804L16.9015 52.9978ZM72.9043 52.9978L46.6626 64.4804C46.5475 64.5309 46.4254 64.5534 46.3075 64.5927V28.91C46.8127 28.8104 47.3094 28.6616 47.7865 28.4526L74.3763 16.8226V50.747C74.3763 51.7223 73.7981 52.6063 72.9043 52.9978Z" fill="black"/>
<path d="M54.9755 53.726L50.1302 55.8463C49.4202 56.1578 49.096 56.9843 49.4075 57.693C49.6377 58.2206 50.1526 58.5349 50.6943 58.5349C50.8823 58.5349 51.0732 58.4984 51.2556 58.417L56.1009 56.2968C56.8109 55.9852 57.1351 55.1587 56.8236 54.4501C56.5135 53.7401 55.6856 53.4131 54.9755 53.726Z" fill="black"/>
<path fill-rule="evenodd" clip-rule="evenodd" d="M26.2512 90.6806L15.9981 80.4275C15.369 79.7984 15.369 78.7783 15.9981 78.1491L26.2512 67.896C26.8804 67.2668 27.9005 67.2668 28.5296 67.896C29.1588 68.5252 29.1588 69.5453 28.5296 70.1745L21.0269 77.6772L72.6692 77.6772C73.559 77.6772 74.2803 78.3985 74.2803 79.2883C74.2803 80.1781 73.559 80.8994 72.6692 80.8994L21.0269 80.8994L28.5296 88.4021C29.1588 89.0313 29.1588 90.0514 28.5296 90.6806C27.9005 91.3098 26.8804 91.3098 26.2512 90.6806Z" fill="black"/>
</svg>
