<svg width="87" height="87" viewBox="0 0 87 87" fill="none" xmlns="http://www.w3.org/2000/svg">
<path d="M43.5 83C50.9419 83 57 77.0167 57 69.6667V24.6667C57 24.1 56.7131 23.5667 56.2238 23.2667L51.7181 20.4167V6.33333H53.625C54.5531 6.33333 55.3125 5.58333 55.3125 4.66667C55.3125 3.75 54.5531 3 53.625 3H33.375C32.4469 3 31.6875 3.75 31.6875 4.66667C31.6875 5.58333 32.4469 6.33333 33.375 6.33333H35.0625V20.4333L30.7594 23.2833C30.2869 23.5833 30 24.1167 30 24.6667V69.6667C30 77.0167 36.0581 83 43.5 83ZM33.375 41.3333H53.625V69.6667C53.625 75.1833 49.0856 79.6667 43.5 79.6667C37.9144 79.6667 33.375 75.1833 33.375 69.6667V41.3333Z" fill="black"/>
</svg>
