<svg width="66" height="65" viewBox="0 0 66 65" fill="none" xmlns="http://www.w3.org/2000/svg">
<path d="M32.8891 64.5313C28.9687 64.0479 25.0752 62.9873 21.2085 61.3493C17.3419 59.7114 13.8914 57.3618 10.8571 54.3007C7.82289 51.2396 5.36594 47.3729 3.48631 42.7007C1.60668 38.0285 0.66687 32.4165 0.66687 25.8646V22.6424H3.88909C6.62798 22.6424 9.44743 22.9915 12.3474 23.6896C15.2474 24.3877 17.9595 25.435 20.4835 26.8313C21.128 22.2127 22.5914 17.4734 24.8738 12.6132C27.1562 7.75303 29.828 3.57756 32.8891 0.0868225C35.9502 3.57756 38.622 7.75303 40.9044 12.6132C43.1868 17.4734 44.6502 22.2127 45.2946 26.8313C47.8187 25.435 50.5308 24.3877 53.4308 23.6896C56.3308 22.9915 59.1502 22.6424 61.8891 22.6424H65.1113V25.8646C65.1113 32.4165 64.1715 38.0285 62.2919 42.7007C60.4122 47.3729 57.9553 51.2396 54.921 54.3007C51.8868 57.3618 48.4497 59.7114 44.6099 61.3493C40.7701 62.9873 36.8632 64.0479 32.8891 64.5313ZM32.728 57.9257C32.1372 49.0109 29.4923 42.2711 24.7933 37.7063C20.0942 33.1415 14.2539 30.322 7.27243 29.2479C7.86317 38.4313 10.5886 45.2785 15.4488 49.7896C20.309 54.3007 26.0687 57.0127 32.728 57.9257ZM32.8891 37.4646C33.6946 36.2831 34.6747 35.0614 35.8294 33.7993C36.984 32.5373 38.0983 31.4498 39.1724 30.5368C39.065 27.4757 38.4608 24.2803 37.3599 20.9507C36.259 17.6211 34.7687 14.372 32.8891 11.2035C31.0095 14.372 29.5192 17.6211 28.4183 20.9507C27.3173 24.2803 26.7132 27.4757 26.6058 30.5368C27.6798 31.4498 28.8076 32.5373 29.9891 33.7993C31.1706 35.0614 32.1372 36.2831 32.8891 37.4646ZM39.1724 56.4757C41.1595 55.8313 43.2271 54.8914 45.3752 53.6563C47.5233 52.4211 49.5238 50.7428 51.3766 48.6215C53.2294 46.5002 54.8136 43.8553 56.1294 40.6868C57.4451 37.5183 58.2372 33.7053 58.5058 29.2479C53.4576 29.9998 49.0271 31.678 45.2141 34.2827C41.4011 36.8873 38.4743 40.2035 36.4335 44.2313C37.078 45.9498 37.6284 47.8294 38.0849 49.8702C38.5414 51.9109 38.9039 54.1127 39.1724 56.4757Z" fill="white"/>
</svg>
